<svg xmlns="http://www.w3.org/2000/svg" width="175" height="175" viewBox="0 0 175 175">
  <g id="Group_14779" data-name="Group 14779" transform="translate(-596 -213)">
    <circle id="Ellipse_7" data-name="Ellipse 7" cx="87.5" cy="87.5" r="87.5" transform="translate(596 213)" fill="#832729" opacity="0.052"/>
    <g id="noun-shop-bag-3002040" transform="translate(482.074 207.32)">
      <path id="Path_328" data-name="Path 328" d="M147.588,146.1l27.837,14.935h.195a1.506,1.506,0,0,0,.508.09,1.237,1.237,0,0,0,.328,0L254.25,141.19a1.493,1.493,0,0,0,1.105-1.493l-8.139-84.829h0a1.485,1.485,0,0,0-.149-.507,1.653,1.653,0,0,0-.3-.344l-.09-.075-.149-.12-14.517-8.213a1.5,1.5,0,0,0-1.494,2.6l11.067,6.228-16.607,3.66c-1.195-12.111-3.764-26.15-9.334-30.795a6.857,6.857,0,0,0-5.855-1.643c-9.588,1.747-13.038,22.4-14.248,39.025l-19.848,4.436L159.265,55.676l33.5-7.467h0a1.494,1.494,0,0,0-.643-2.838l-12.186,2.718c1.21-6.974,4.182-16.547,8.349-17.787,1.942-.582,4.286.717,6.96,3.838h0a1.494,1.494,0,0,0,2.24-1.972c-3.51-4.076-6.855-5.674-10.081-4.734-7.168,2.136-9.961,16.966-10.633,21.356l-21.177,4.72a1.542,1.542,0,0,0-.374.134,1.489,1.489,0,0,0-.389.343l-.09.149h0a1.491,1.491,0,0,0-.194.448,2,2,0,0,0,0,.432c-.627,3.286-2.3,18.1-7.6,89.608a1.5,1.5,0,0,0,.642,1.479ZM210.314,28.6h0a3.986,3.986,0,0,1,3.4.986c4.66,3.913,7.094,17.041,8.274,29.168l-23.417,5.242c1.283-16.218,4.5-34.08,11.708-35.4ZM194.857,84.93a1.493,1.493,0,1,0,2.987,0c0-4.361,0-10.8.507-17.773l23.9-5.362c.538,6.421.717,12.321.717,16.07h0a1.493,1.493,0,0,0,2.987,0c0-.7,0-7.9-.747-16.727L244.4,56.793l7.856,81.871L177.578,157.84l-.762-85.92L195.261,67.8c-.463,8.38-.418,15.219-.4,17.131Zm-37.9-27.194,16.906,13.71.762,85.8-24.761-13.307c2.3-30.96,5.794-75.6,7.093-86.2Z" fill="#908e8a"/>
      <line id="Line_243" data-name="Line 243" y1="7" x2="27" transform="translate(204.583 116.18)" fill="none" stroke="#908e8a" stroke-linecap="round" stroke-width="3"/>
      <g id="Ellipse_8" data-name="Ellipse 8" transform="translate(201.083 101.68)" fill="#fff" stroke="#908e8a" stroke-width="3">
        <circle cx="4" cy="4" r="4" stroke="none"/>
        <circle cx="4" cy="4" r="2.5" fill="none"/>
      </g>
      <g id="Ellipse_9" data-name="Ellipse 9" transform="translate(219.083 97.68)" fill="#fff" stroke="#908e8a" stroke-width="3">
        <circle cx="4" cy="4" r="4" stroke="none"/>
        <circle cx="4" cy="4" r="2.5" fill="none"/>
      </g>
    </g>
  </g>
</svg>
